<svg width="21" height="21" viewBox="0 0 21 21" fill="none" xmlns="http://www.w3.org/2000/svg">
<path d="M10.5 0C4.69969 0 0 4.69969 0 10.5C0 16.3003 4.69969 21 10.5 21C16.3003 21 21 16.3003 21 10.5C21 4.69969 16.3003 0 10.5 0ZM6.51562 15.0886C6.45119 15.1985 6.35896 15.2895 6.24821 15.3524C6.13745 15.4154 6.01208 15.4481 5.88469 15.4472C5.75485 15.4483 5.62726 15.4133 5.51625 15.3459C5.43359 15.298 5.3612 15.2343 5.30324 15.1583C5.24528 15.0824 5.20288 14.9957 5.17849 14.9034C5.1541 14.811 5.1482 14.7147 5.16111 14.62C5.17403 14.5254 5.20551 14.4342 5.25375 14.3517L5.97047 13.1602C6.00669 13.0987 6.05836 13.0477 6.12036 13.0123C6.18236 12.977 6.25253 12.9585 6.32391 12.9586H6.42984C6.94969 12.9586 7.31344 13.2712 7.41937 13.5741L6.51562 15.0886ZM12.5836 12.7448L7.89 12.75H4.77047C4.67232 12.7504 4.57511 12.7309 4.48474 12.6926C4.39436 12.6543 4.3127 12.5981 4.24472 12.5273C4.17673 12.4565 4.12384 12.3726 4.08924 12.2808C4.05464 12.1889 4.03906 12.091 4.04344 11.993C4.05844 11.5992 4.40203 11.3011 4.79344 11.3011H7.05469L9.73547 6.73781L8.86734 5.25891C8.67188 4.92188 8.75859 4.4775 9.09375 4.26562C9.17638 4.21219 9.26896 4.17601 9.36592 4.15927C9.46289 4.14253 9.56224 4.14557 9.658 4.1682C9.75377 4.19084 9.84396 4.23261 9.92317 4.291C10.0024 4.34939 10.069 4.42319 10.1189 4.50797L10.583 5.30062H10.5881L11.0527 4.50797C11.1027 4.42363 11.1691 4.35022 11.2481 4.29213C11.3271 4.23403 11.417 4.19244 11.5124 4.16982C11.6078 4.1472 11.7068 4.14403 11.8034 4.16049C11.9001 4.17695 11.9925 4.21271 12.075 4.26562C12.4083 4.4775 12.4941 4.92188 12.2972 5.26031L11.4291 6.73922L10.5853 8.17781L8.75297 11.3025V11.3077H11.4534C11.7919 11.3077 12.2161 11.4895 12.3877 11.782L12.4027 11.8125C12.5541 12.0698 12.6398 12.2466 12.6398 12.5039C12.6374 12.5875 12.6188 12.6698 12.585 12.7463L12.5836 12.7448ZM16.2281 12.75H14.9573V12.7552L15.8864 14.3353C15.9863 14.5017 16.0169 14.7007 15.9716 14.8895C15.9263 15.0782 15.8087 15.2416 15.6441 15.3445C15.53 15.4141 15.3989 15.4509 15.2653 15.4509C15.1383 15.4509 15.0134 15.418 14.9028 15.3554C14.7923 15.2928 14.6998 15.2027 14.6344 15.0938L13.2614 12.7566L12.4083 11.3034L11.3077 9.42188C11.1482 9.15321 11.0616 8.84764 11.0562 8.53529C11.0509 8.22294 11.1271 7.91458 11.2772 7.64062C11.4947 7.25672 11.6611 7.15594 11.6611 7.15594L14.1094 11.2969H16.2145C16.6083 11.2969 16.9463 11.5997 16.9645 11.9883C16.9683 12.0871 16.9521 12.1856 16.9168 12.278C16.8816 12.3704 16.828 12.4546 16.7594 12.5258C16.6907 12.5969 16.6084 12.6535 16.5174 12.692C16.4263 12.7305 16.3284 12.7503 16.2295 12.75H16.2281Z" fill="#231305"/>
</svg>
