<svg width="24" height="24" viewBox="0 0 24 24" fill="none" xmlns="http://www.w3.org/2000/svg">
<path fill-rule="evenodd" clip-rule="evenodd" d="M5 1C3.93913 1 2.92172 1.42143 2.17157 2.17157C1.42143 2.92172 1 3.93913 1 5V19C1 20.0609 1.42143 21.0783 2.17157 21.8284C2.92172 22.5786 3.93913 23 5 23H19C20.0609 23 21.0783 22.5786 21.8284 21.8284C22.5786 21.0783 23 20.0609 23 19V5C23 3.93913 22.5786 2.92172 21.8284 2.17157C21.0783 1.42143 20.0609 1 19 1H5ZM7.694 4.698L14.355 8.678L11.833 11.038L5.722 5.32C6.053 4.6 6.95 4.253 7.694 4.698ZM12.862 12L15.612 9.429L17.854 10.769C18.776 11.319 18.776 12.68 17.854 13.231L15.611 14.571L12.862 12ZM10.804 12L5.59 7.123V16.877L10.804 12ZM11.834 12.963L5.721 18.68C6.052 19.4 6.949 19.747 7.693 19.302L14.354 15.322L11.832 12.962L11.834 12.963Z" fill="#E8E7E6"/>
</svg>
