<svg width="186" height="23" viewBox="0 0 186 23" fill="none" xmlns="http://www.w3.org/2000/svg">
<path d="M0 22.8623C0.832631 15.9964 2.32119 9.57661 6.62511 4.19588C8.90736 1.33933 11.7347 -0.603962 15.6852 0.171558C17.7788 0.581775 19.465 1.74655 20.8457 3.30059C25.7517 8.82205 27.3181 15.6011 28.2256 22.7724C25.9164 22.7724 23.7899 22.7724 21.6664 22.7724C20.4204 19.862 17.5661 18.4397 13.391 18.6463C9.50038 18.8379 7.51764 20.0297 6.6341 22.7455C6.47236 22.7814 6.28367 22.8533 6.09199 22.8563C4.15118 22.8653 2.21336 22.8623 0 22.8623ZM20.3995 14.8975C19.9442 13.3734 19.7585 12.2206 19.2673 11.2115C18.3838 9.39396 17.4703 7.55247 16.2782 5.93257C15.2809 4.57316 13.7264 4.42345 12.5733 5.36964C9.81187 7.62733 8.98224 10.8672 8.03879 14.3914C12.3188 12.6098 16.2273 12.8524 20.3995 14.8945V14.8975Z" fill="#C56C31"/>
<path d="M40.5546 6.11704C39.3804 6.11704 38.5855 6.31575 38.1701 6.71317C37.7546 7.09252 37.5468 7.68864 37.5468 8.50154V22.8627H31.3417V8.77251C31.3417 7.20091 31.6669 5.88221 32.3172 4.81641C32.9675 3.73254 33.9249 2.91965 35.1894 2.37771C36.4539 1.81772 37.9984 1.53772 39.8229 1.53772C40.5997 1.53772 41.3042 1.59191 41.9365 1.7003C42.5868 1.79062 43.2823 1.93514 44.0229 2.13384V6.63188C43.4629 6.4693 42.9029 6.34285 42.3429 6.25253C41.7829 6.1622 41.1868 6.11704 40.5546 6.11704ZM28.2256 13.2434V8.69122H43.6165V13.2434H28.2256Z" fill="#562A03"/>
<path d="M44.5874 7.33644H50.928L51.8493 12.837V22.8628H45.6442V12.6474L44.5874 7.33644ZM58.9215 7.03837V12.3222C58.3435 12.2138 57.8106 12.1416 57.3228 12.1054C56.8532 12.0512 56.4196 12.0241 56.0222 12.0241C55.2816 12.0241 54.5951 12.1687 53.9629 12.4577C53.3306 12.7287 52.8158 13.2074 52.4183 13.8938C52.039 14.5622 51.8493 15.4925 51.8493 16.6848L50.7113 15.2757C50.8738 14.1557 51.0906 13.099 51.3616 12.1054C51.6506 11.0938 52.039 10.1996 52.5267 9.42287C53.0145 8.62804 53.6196 8.00482 54.3422 7.55321C55.0828 7.1016 55.9861 6.87579 57.0519 6.87579C57.3409 6.87579 57.639 6.89386 57.946 6.92999C58.2531 6.94805 58.5783 6.98418 58.9215 7.03837Z" fill="#562A03"/>
<path d="M59.8925 7.03836L63.0086 7.68868L66.0976 7.03836V22.8628H59.8925V7.03836ZM63.0086 6.00869C61.9608 6.00869 61.1118 5.74675 60.4615 5.22289C59.8112 4.69902 59.486 3.99451 59.486 3.10935C59.486 2.20613 59.8112 1.49259 60.4615 0.968723C61.1118 0.444856 61.9608 0.182922 63.0086 0.182922C64.0924 0.182922 64.9505 0.444856 65.5828 0.968723C66.2331 1.49259 66.5582 2.20613 66.5582 3.10935C66.5582 3.99451 66.2331 4.69902 65.5828 5.22289C64.9505 5.74675 64.0924 6.00869 63.0086 6.00869Z" fill="#562A03"/>
<path d="M78.9369 19.8821L76.8504 19.855L81.9175 7.33643H88.502L81.3485 22.8628H74.2762L67.1228 7.33643H73.9782L78.9369 19.8821Z" fill="#562A03"/>
<path d="M99.038 22.8627C97.1232 22.8627 95.4161 22.5195 93.9168 21.8331C92.4174 21.1466 91.2342 20.1802 90.3671 18.9337C89.5 17.6873 89.0665 16.2331 89.0665 14.5712C89.0665 12.9454 89.4819 11.5183 90.3129 10.2899C91.1619 9.06153 92.309 8.11315 93.7542 7.44477C95.2174 6.75832 96.8522 6.4151 98.6587 6.4151C100.555 6.4151 102.172 6.81252 103.509 7.60735C104.846 8.38412 105.866 9.49508 106.571 10.9402C107.293 12.3854 107.655 14.0834 107.655 16.0344H94.1335V12.9725H104.078L102.262 14.0021C102.172 13.2254 101.973 12.5841 101.666 12.0783C101.377 11.5544 100.98 11.157 100.474 10.886C99.9864 10.6151 99.3993 10.4796 98.7129 10.4796C97.9541 10.4796 97.3038 10.6422 96.7619 10.9673C96.238 11.2925 95.8316 11.7441 95.5426 12.3222C95.2716 12.9002 95.1361 13.5596 95.1361 14.3002C95.1361 15.2215 95.3348 15.9983 95.7322 16.6305C96.1477 17.2628 96.7709 17.7505 97.6019 18.0937C98.4329 18.4189 99.4625 18.5815 100.691 18.5815C101.865 18.5815 103.012 18.4279 104.132 18.1208C105.27 17.8137 106.309 17.3621 107.248 16.766V20.3969C106.146 21.1918 104.873 21.806 103.428 22.2395C101.983 22.655 100.519 22.8627 99.038 22.8627Z" fill="#562A03"/>
<path d="M108.219 7.33644H114.424L115.481 13.7583V22.8628H109.276V12.8099L108.219 7.33644ZM121.009 6.87579C122.526 6.87579 123.809 7.17386 124.857 7.76998C125.904 8.36611 126.708 9.21513 127.268 10.3171C127.846 11.4009 128.135 12.6745 128.135 14.1377V22.8628H121.903V15.0319C121.903 14.0203 121.632 13.2435 121.09 12.7016C120.566 12.1596 119.817 11.8887 118.841 11.8887C118.155 11.8887 117.559 12.0332 117.053 12.3222C116.547 12.6112 116.159 13.0177 115.888 13.5416C115.617 14.0654 115.481 14.6977 115.481 15.4383L113.612 14.4628C113.846 12.7828 114.316 11.3829 115.021 10.2629C115.743 9.14287 116.619 8.30288 117.649 7.74288C118.679 7.16482 119.799 6.87579 121.009 6.87579Z" fill="#562A03"/>
<path d="M143.278 22.4021L142.519 16.6034L143.522 14.7067L142.519 12.1867L143.874 1.53772H150.323L148.67 14.1376L149.727 22.4021H143.278ZM144.524 14.6525C144.307 16.2963 143.829 17.7415 143.088 18.9879C142.365 20.2163 141.426 21.1737 140.27 21.8602C139.132 22.5285 137.822 22.8627 136.341 22.8627C134.842 22.8627 133.514 22.5195 132.358 21.8331C131.202 21.1466 130.298 20.1892 129.648 18.9608C129.016 17.7144 128.7 16.2783 128.7 14.6525C128.7 12.9905 129.016 11.5454 129.648 10.317C130.298 9.07057 131.202 8.11316 132.358 7.44477C133.514 6.75833 134.842 6.4151 136.341 6.4151C137.822 6.4151 139.132 6.7493 140.27 7.41768C141.426 8.08606 142.374 9.04347 143.115 10.2899C143.856 11.5183 144.325 12.9725 144.524 14.6525ZM134.959 14.6525C134.959 15.3389 135.095 15.9441 135.365 16.4679C135.655 16.9918 136.052 17.4073 136.558 17.7144C137.064 18.0215 137.642 18.175 138.292 18.175C138.96 18.175 139.602 18.0215 140.216 17.7144C140.83 17.4073 141.372 16.9918 141.842 16.4679C142.311 15.9441 142.654 15.3389 142.871 14.6525C142.654 13.966 142.311 13.3609 141.842 12.837C141.372 12.2951 140.83 11.8706 140.216 11.5635C139.602 11.2564 138.96 11.1028 138.292 11.1028C137.642 11.1028 137.064 11.2564 136.558 11.5635C136.052 11.8706 135.655 12.2951 135.365 12.837C135.095 13.3609 134.959 13.966 134.959 14.6525Z" fill="#562A03"/>
<path d="M160.994 22.8627C158.989 22.8627 157.228 22.5195 155.711 21.8331C154.193 21.1466 153.01 20.1892 152.161 18.9608C151.312 17.7144 150.887 16.2783 150.887 14.6525C150.887 12.9905 151.312 11.5454 152.161 10.317C153.01 9.07056 154.193 8.11315 155.711 7.44477C157.228 6.75832 158.998 6.4151 161.021 6.4151C163.027 6.4151 164.788 6.75832 166.305 7.44477C167.823 8.11315 168.997 9.07056 169.828 10.317C170.677 11.5454 171.101 12.9905 171.101 14.6525C171.101 16.2783 170.677 17.7144 169.828 18.9608C168.997 20.1892 167.823 21.1466 166.305 21.8331C164.788 22.5195 163.018 22.8627 160.994 22.8627ZM161.021 18.3105C161.834 18.3105 162.521 18.166 163.081 17.877C163.659 17.5879 164.092 17.1724 164.381 16.6305C164.689 16.0705 164.842 15.4112 164.842 14.6525C164.842 13.8757 164.689 13.2163 164.381 12.6744C164.092 12.1144 163.659 11.6899 163.081 11.4009C162.521 11.1118 161.834 10.9673 161.021 10.9673C160.209 10.9673 159.513 11.1118 158.935 11.4009C158.357 11.6899 157.914 12.1144 157.607 12.6744C157.318 13.2163 157.174 13.8667 157.174 14.6254C157.174 15.4021 157.318 16.0705 157.607 16.6305C157.914 17.1724 158.357 17.5879 158.935 17.877C159.513 18.166 160.209 18.3105 161.021 18.3105Z" fill="#562A03"/>
<path d="M171.666 7.33644H178.006L178.928 12.837V22.8628H172.723V12.6474L171.666 7.33644ZM186 7.03837V12.3222C185.422 12.2138 184.889 12.1416 184.401 12.1054C183.932 12.0512 183.498 12.0241 183.101 12.0241C182.36 12.0241 181.674 12.1687 181.041 12.4577C180.409 12.7287 179.894 13.2074 179.497 13.8938C179.117 14.5622 178.928 15.4925 178.928 16.6848L177.79 15.2757C177.952 14.1557 178.169 13.099 178.44 12.1054C178.729 11.0938 179.117 10.1996 179.605 9.42287C180.093 8.62804 180.698 8.00482 181.421 7.55321C182.161 7.1016 183.065 6.87579 184.13 6.87579C184.419 6.87579 184.717 6.89386 185.025 6.92999C185.332 6.94805 185.657 6.98418 186 7.03837Z" fill="#562A03"/>
</svg>
